<svg width="250" height="250" fill="none" xmlns="http://www.w3.org/2000/svg"><rect width="250" height="250" rx="12" fill="#16161D"/><g filter="url(#a)"><path d="M85.075 104.4 81.7 98.55l12.6-7.2c10.35-5.7 15.525-14.775 15.525-27.225 0-23.25-17.7-34.875-53.1-34.875h-20.7V180h-6.75V22.5h27.45c19.8 0 34.725 3.675 44.775 11.025 10.05 7.2 15.075 17.4 15.075 30.6 0 15-6.3 26.025-18.9 33.075l-12.6 7.2Z" fill="#F3F4F6"/></g><g filter="url(#b)"><path d="M154.825 217.25h62.1l-27.225-74.7 12.6-7.2c10.35-5.7 15.525-14.775 15.525-27.225 0-23.25-17.7-34.875-53.1-34.875h-20.7V224h-6.75V66.5h27.45c19.8 0 34.725 3.675 44.775 11.025 10.05 7.2 15.075 17.4 15.075 30.6 0 15-6.3 26.025-18.9 33.075l-7.65 4.275L226.6 224h-71.775v-6.75Z" fill="#F3F4F6"/></g><defs><filter id="a" x="27.275" y="20.5" width="91.3" height="161.5" filterUnits="userSpaceOnUse" color-interpolation-filters="sRGB"><feFlood flood-opacity="0" result="BackgroundImageFix"/><feColorMatrix in="SourceAlpha" values="0 0 0 0 0 0 0 0 0 0 0 0 0 0 0 0 0 0 127 0" result="hardAlpha"/><feOffset dx="-1"/><feComposite in2="hardAlpha" operator="out"/><feColorMatrix values="0 0 0 0 0.192157 0 0 0 0 0.180392 0 0 0 0 0.498039 0 0 0 1 0"/><feBlend in2="BackgroundImageFix" result="effect1_dropShadow_2:6"/><feColorMatrix in="SourceAlpha" values="0 0 0 0 0 0 0 0 0 0 0 0 0 0 0 0 0 0 127 0" result="hardAlpha"/><feOffset dy="1"/><feComposite in2="hardAlpha" operator="out"/><feColorMatrix values="0 0 0 0 0.505882 0 0 0 0 0.0941176 0 0 0 0 0.258824 0 0 0 1 0"/><feBlend in2="effect1_dropShadow_2:6" result="effect2_dropShadow_2:6"/><feColorMatrix in="SourceAlpha" values="0 0 0 0 0 0 0 0 0 0 0 0 0 0 0 0 0 0 127 0" result="hardAlpha"/><feOffset/><feGaussianBlur stdDeviation="1"/><feComposite in2="hardAlpha" operator="out"/><feColorMatrix values="0 0 0 0 0.952941 0 0 0 0 0.956863 0 0 0 0 0.964706 0 0 0 1 0"/><feBlend in2="effect2_dropShadow_2:6" result="effect3_dropShadow_2:6"/><feBlend in="SourceGraphic" in2="effect3_dropShadow_2:6" result="shape"/></filter><filter id="b" x="135.275" y="64.5" width="93.325" height="161.5" filterUnits="userSpaceOnUse" color-interpolation-filters="sRGB"><feFlood flood-opacity="0" result="BackgroundImageFix"/><feColorMatrix in="SourceAlpha" values="0 0 0 0 0 0 0 0 0 0 0 0 0 0 0 0 0 0 127 0" result="hardAlpha"/><feOffset dx="-1"/><feComposite in2="hardAlpha" operator="out"/><feColorMatrix values="0 0 0 0 0.192157 0 0 0 0 0.180392 0 0 0 0 0.498039 0 0 0 1 0"/><feBlend in2="BackgroundImageFix" result="effect1_dropShadow_2:6"/><feColorMatrix in="SourceAlpha" values="0 0 0 0 0 0 0 0 0 0 0 0 0 0 0 0 0 0 127 0" result="hardAlpha"/><feOffset dy="1"/><feComposite in2="hardAlpha" operator="out"/><feColorMatrix values="0 0 0 0 0.505882 0 0 0 0 0.0941176 0 0 0 0 0.258824 0 0 0 1 0"/><feBlend in2="effect1_dropShadow_2:6" result="effect2_dropShadow_2:6"/><feColorMatrix in="SourceAlpha" values="0 0 0 0 0 0 0 0 0 0 0 0 0 0 0 0 0 0 127 0" result="hardAlpha"/><feOffset/><feGaussianBlur stdDeviation="1"/><feComposite in2="hardAlpha" operator="out"/><feColorMatrix values="0 0 0 0 0.952941 0 0 0 0 0.956863 0 0 0 0 0.964706 0 0 0 1 0"/><feBlend in2="effect2_dropShadow_2:6" result="effect3_dropShadow_2:6"/><feBlend in="SourceGraphic" in2="effect3_dropShadow_2:6" result="shape"/></filter></defs></svg>